<?xml version="1.0" standalone="no"?>
<!DOCTYPE svg PUBLIC "-//W3C//DTD SVG 20010904//EN"
 "http://www.w3.org/TR/2001/REC-SVG-20010904/DTD/svg10.dtd">
<svg version="1.0" xmlns="http://www.w3.org/2000/svg"
 width="225.000000pt" height="225.000000pt" viewBox="0 0 225.000000 225.000000"
 preserveAspectRatio="xMidYMid meet">
<metadata>
Created by potrace 1.14, written by Peter Selinger 2001-2017
</metadata>
<g transform="translate(0.000000,225.000000) scale(0.100000,-0.100000)"
fill="#000000" stroke="none">
<path d="M1000 2077 c-3 -2 -25 -7 -50 -11 -264 -35 -524 -226 -653 -481 -34
-69 -75 -206 -85 -290 -56 -439 226 -861 651 -975 99 -26 138 -31 244 -31 504
2 907 420 888 921 -4 117 -7 135 -37 235 -42 145 -117 266 -233 380 -116 113
-249 188 -410 231 -57 15 -304 32 -315 21z m-433 -366 c45 -2 73 -41 92 -126
l17 -80 469 -3 c465 -2 469 -2 492 -24 13 -12 23 -33 23 -48 0 -21 -51 -266
-76 -360 -2 -8 -12 -55 -24 -104 -27 -119 -46 -140 -130 -138 -35 1 -40 -1
-24 -8 32 -13 54 -50 54 -91 0 -52 -48 -94 -99 -85 -46 7 -71 34 -78 84 -5 35
-2 44 21 65 14 13 26 26 26 29 0 2 -86 4 -190 4 -174 0 -189 -1 -166 -15 74
-45 51 -154 -35 -167 -77 -13 -135 90 -83 147 10 12 28 25 39 30 15 6 9 7 -22
7 -52 -1 -97 17 -112 45 -6 12 -15 45 -21 72 -5 28 -23 115 -40 195 -17 80
-47 221 -66 314 -19 93 -39 177 -45 188 -9 17 -31 23 -73 18 -36 -3 -66 10
-66 30 0 19 28 27 75 23 11 -1 30 -2 42 -2z"/>
<path d="M690 1446 c0 -3 12 -60 26 -128 14 -68 39 -188 55 -268 16 -80 36
-151 42 -158 16 -15 654 -19 669 -4 16 16 132 527 124 547 -5 13 -66 15 -461
15 -250 0 -455 -2 -455 -4z m860 -116 c7 -10 5 -18 -4 -25 -8 -6 -153 -9 -392
-9 -208 1 -382 2 -386 3 -9 1 -11 35 -3 43 3 3 179 4 390 4 331 -1 387 -3 395
-16z m-48 -147 c9 -10 9 -16 0 -25 -16 -16 -670 -20 -689 -5 -19 14 -16 35 5
39 9 2 164 4 344 4 248 -1 330 -4 340 -13z m-44 -180 l3 -23 -305 0 c-202 0
-307 4 -311 10 -4 6 -4 18 -1 26 5 12 50 14 308 12 l303 -3 3 -22z"/>
<path d="M1344 755 c-13 -20 -14 -28 -4 -40 16 -19 44 -19 60 0 15 18 8 40
-19 55 -17 9 -23 6 -37 -15z"/>
<path d="M901 761 c-9 -6 -11 -18 -7 -35 8 -31 50 -36 65 -8 19 36 -21 66 -58
43z"/>
</g>
</svg>
